<?xml version="1.0" encoding="iso-8859-1"?>
<!-- Generator: Adobe Illustrator 19.0.0, SVG Export Plug-In . SVG Version: 6.00 Build 0)  -->
<svg version="1.1" id="Layer_1" xmlns="http://www.w3.org/2000/svg" xmlns:xlink="http://www.w3.org/1999/xlink" x="0px" y="0px"
	 viewBox="0 0 511.999 511.999" style="enable-background:new 0 0 511.999 511.999;" xml:space="preserve">
<g>
	<g>
		<g>
			<circle cx="96.87" cy="384.236" r="28.56"/>
			<path d="M479.357,367.469c21.623-19.318,32.003-47.987,32.642-49.798l-31.532-11.175c-0.125,0.348-10.131,26.99-27.091,39.102
				v-66.252h-42.11l29.808-125.277c5.065-21.29-0.279-44.385-13.948-60.272c-14.688-17.074-32.875-31.038-54.052-41.51
				c-28.718-14.198-62.083-21.397-99.168-21.397s-70.45,7.199-99.168,21.398c-21.177,10.471-39.364,24.436-54.052,41.509
				c-13.668,15.888-19.013,38.983-13.947,60.274L140.986,298c-13.238-6.799-28.235-10.639-44.113-10.639
				C43.457,287.361,0,330.818,0,384.234c0,53.416,43.457,96.874,96.873,96.874c53.416,0,96.874-43.457,96.874-96.873
				c0-2.668-0.114-5.31-0.326-7.925c2.483,0.394,5.01,0.608,7.574,0.608h145.824c14.563,0,28.043-6.541,37.837-17.386
				c2.652,3.197,5.453,6.103,8.395,8.711c-13.06,11.875-21.272,28.994-21.272,47.995c0,35.771,29.101,64.872,64.871,64.872
				s64.871-29.101,64.871-64.872C501.521,396.813,492.928,379.368,479.357,367.469z M273.907,64.344
				c19.667,0,36.85,2.256,51.843,6.015l-16.809,144.87h-70.068l-16.808-144.87C237.057,66.6,254.24,64.344,273.907,64.344z
				 M139.285,146.328c-2.628-11.042-0.037-22.809,6.762-30.71c9.763-11.349,23.874-23.745,43.703-33.511l15.447,133.124h-49.517
				L139.285,146.328z M96.873,447.654c-34.97,0-63.42-28.449-63.42-63.42c0-34.971,28.45-63.42,63.42-63.42
				c34.97,0,63.42,28.45,63.42,63.42S131.844,447.654,96.873,447.654z M366.015,325.005c-2.585,10.868-10.479,18.458-19.196,18.458
				H200.995c-8.717,0-16.611-7.591-19.196-18.46l-18.161-76.321h220.537L366.015,325.005z M392.134,215.23h-49.514l15.445-133.124
				c19.829,9.765,33.94,22.163,43.702,33.511c6.799,7.902,9.389,19.669,6.762,30.709L392.134,215.23z M403.307,312.8h16.616v33.883
				c-10.537-6.55-16.45-18.153-18.935-24.14L403.307,312.8z M436.651,447.654c-17.323,0-31.417-14.094-31.417-31.418
				c0-16.703,13.105-30.399,29.573-31.358c0.616,0.017,1.225,0.054,1.846,0.054c0.68,0,1.354-0.017,2.024-0.04
				c16.383,1.047,29.393,14.702,29.393,31.345C468.068,433.562,453.974,447.654,436.651,447.654z"/>
			<circle cx="436.646" cy="416.239" r="17.156"/>
		</g>
	</g>
</g>
<g>
</g>
<g>
</g>
<g>
</g>
<g>
</g>
<g>
</g>
<g>
</g>
<g>
</g>
<g>
</g>
<g>
</g>
<g>
</g>
<g>
</g>
<g>
</g>
<g>
</g>
<g>
</g>
<g>
</g>
</svg>
